<svg id="Dark_logo" data-name="Dark logo" xmlns="http://www.w3.org/2000/svg" width="312.607" height="24.469" viewBox="0 0 312.607 24.469">
  <g id="Group_1199" data-name="Group 1199">
    <g id="Group_1194" data-name="Group 1194" transform="translate(7.356 16.446)">
      <path id="Path_52893" data-name="Path 52893" d="M413.008,91.254A3.053,3.053,0,1,1,416.06,88.2,3.057,3.057,0,0,1,413.008,91.254Z" transform="translate(-409.954 -85.149)" fill="#f05f5d"/>
    </g>
    <g id="Group_1195" data-name="Group 1195" transform="translate(38.237)">
      <path id="Path_52894" data-name="Path 52894" d="M439.186,77.314a3.053,3.053,0,1,1,3.056-3.052A3.056,3.056,0,0,1,439.186,77.314Z" transform="translate(-436.13 -71.209)" fill="#507cbd"/>
    </g>
    <g id="Group_1196" data-name="Group 1196" transform="translate(28.273 18.363)">
      <path id="Path_52895" data-name="Path 52895" d="M430.735,92.88a3.053,3.053,0,1,1,3.054-3.053A3.055,3.055,0,0,1,430.735,92.88Z" transform="translate(-427.684 -86.774)" fill="#ed6b52"/>
    </g>
    <g id="Group_1197" data-name="Group 1197" transform="translate(17.496 7.705)">
      <path id="Path_52896" data-name="Path 52896" d="M421.6,83.845a3.053,3.053,0,1,1,3.052-3.054A3.059,3.059,0,0,1,421.6,83.845Z" transform="translate(-418.549 -77.74)" fill="#e34b9a"/>
    </g>
    <g id="Group_1198" data-name="Group 1198" transform="translate(0 8.406)">
      <path id="Path_52897" data-name="Path 52897" d="M406.773,84.439a3.053,3.053,0,1,1,3.052-3.056A3.06,3.06,0,0,1,406.773,84.439Z" transform="translate(-403.719 -78.334)" fill="#4377a3"/>
    </g>
    <path id="Path_52898" data-name="Path 52898" d="M413.086,85.844l-3.911-4.277a3.054,3.054,0,0,1-2.441,2.239l3.907,4.273A3.047,3.047,0,0,1,413.086,85.844Z" transform="translate(-403.177 -69.347)" fill="#1186c8"/>
    <path id="Path_52899" data-name="Path 52899" d="M419.541,80.672l-6.282,5.415a3.039,3.039,0,0,1,2.166,2.509l6.28-5.413A3.048,3.048,0,0,1,419.541,80.672Z" transform="translate(-402.004 -69.508)" fill="#1fc3f3"/>
    <path id="Path_52900" data-name="Path 52900" d="M431.157,87.913l-7.13-7.057a3.067,3.067,0,0,1-2.334,2.355l7.13,7.055A3.058,3.058,0,0,1,431.157,87.913Z" transform="translate(-400.488 -69.475)" fill="#64cbee"/>
    <path id="Path_52901" data-name="Path 52901" d="M440.276,76.628a3.038,3.038,0,0,1-2.67-1.6l-7.543,13.888c.081-.006.16-.026.244-.026a3.043,3.043,0,0,1,2.67,1.606l7.542-13.886C440.439,76.61,440.359,76.628,440.276,76.628Z" transform="translate(-398.984 -70.523)" fill="#7cceda"/>
  </g>
  <g id="Group_1201" data-name="Group 1201" transform="translate(67.219 0.912)">
    <g id="Group_1200" data-name="Group 1200">
      <path id="Path_52902" data-name="Path 52902" d="M492.725,72.2l-7.03,21.91h-4.07l-4.9-15.274L471.8,94.114h-4.075L460.7,72.2h4.14l4.927,16.2,5.227-16.2h3.445l5.229,16.2,4.957-16.2Z" transform="translate(-460.696 -71.942)" fill="#404041"/>
      <path id="Path_52903" data-name="Path 52903" d="M504.713,81.3h9.23v3.712h-9.23v5.553h10.643v3.546H500.769V72.2h14.586v3.55H504.713Z" transform="translate(-453.493 -71.942)" fill="#404041"/>
      <path id="Path_52904" data-name="Path 52904" d="M543.666,87.679c0,2.528-1.054,6.436-8.019,6.436h-8.672V72.2h7.884c3.747,0,7.59,1.411,7.59,6.176a4.6,4.6,0,0,1-2.594,4.238A5.252,5.252,0,0,1,543.666,87.679Zm-12.747-6.537h4.172c.523,0,3.415.195,3.415-2.631,0-2.463-2.1-2.892-3.709-2.892h-3.878Zm8.8,6.336c0-2.594-2.564-2.856-4.405-2.856h-4.4v6.044h4.53C537.686,90.666,539.723,89.976,539.723,87.478Z" transform="translate(-448.782 -71.942)" fill="#404041"/>
      <path id="Path_52905" data-name="Path 52905" d="M554.686,94.114V72.2h3.943v21.91Z" transform="translate(-443.801 -71.942)" fill="#404041"/>
      <path id="Path_52906" data-name="Path 52906" d="M587.115,88.373c0,3.647-3.485,6.045-7.555,6.045a13.527,13.527,0,0,1-7.227-1.871v-4.01a10.34,10.34,0,0,0,6.308,2.1c2.264,0,4.534-.493,4.534-2.528,0-4.862-11.139-2.1-11.139-9.758,0-4.468,3.715-6.372,7.819-6.372a12.642,12.642,0,0,1,5.879,1.511v3.844a9.707,9.707,0,0,0-5.42-1.678c-2.067,0-4.332.624-4.332,2.6C575.981,82.261,587.115,79.439,587.115,88.373Z" transform="translate(-440.683 -71.982)" fill="#404041"/>
      <path id="Path_52907" data-name="Path 52907" d="M614.679,72.2v3.944H607.65V94.114h-3.941V76.148h-7V72.2Z" transform="translate(-436.248 -71.942)" fill="#404041"/>
      <path id="Path_52908" data-name="Path 52908" d="M642.511,94.114h-4.764L632.521,86.4h-3.546v7.718h-3.943V72.2h8.408c5.061,0,8.112,2.464,8.112,7.03a6.339,6.339,0,0,1-4.793,6.5ZM633.342,82.78c2.27,0,4.272-.525,4.272-3.447,0-2.959-2-3.451-4.272-3.451h-4.367v6.9Z" transform="translate(-431.156 -71.942)" fill="#404041"/>
      <path id="Path_52909" data-name="Path 52909" d="M663.342,84.721v9.393H659.4V84.721L650.791,72.2h4.766l5.814,8.9,5.782-8.9h4.761Z" transform="translate(-426.526 -71.942)" fill="#404041"/>
    </g>
  </g>
</svg>
